<?xml version="1.0" encoding="UTF-8" standalone="no"?>
<svg
   xmlns:dc="http://purl.org/dc/elements/1.1/"
   xmlns:cc="http://creativecommons.org/ns#"
   xmlns:rdf="http://www.w3.org/1999/02/22-rdf-syntax-ns#"
   xmlns:svg="http://www.w3.org/2000/svg"
   xmlns="http://www.w3.org/2000/svg"
   xmlns:sodipodi="http://sodipodi.sourceforge.net/DTD/sodipodi-0.dtd"
   xmlns:inkscape="http://www.inkscape.org/namespaces/inkscape"
   aria-label="Mail"
   role="img"
   viewBox="0 0 512 512"
   version="1.1"
   id="svg6"
   sodipodi:docname="gm.svg"
   inkscape:version="0.92.2 5c3e80d, 2017-08-06">
  <metadata
     id="metadata12">
    <rdf:RDF>
      <cc:Work
         rdf:about="">
        <dc:format>image/svg+xml</dc:format>
        <dc:type
           rdf:resource="http://purl.org/dc/dcmitype/StillImage" />
      </cc:Work>
    </rdf:RDF>
  </metadata>
  <defs
     id="defs10" />
  <sodipodi:namedview
     pagecolor="#ffffff"
     bordercolor="#666666"
     borderopacity="1"
     objecttolerance="10"
     gridtolerance="10"
     guidetolerance="10"
     inkscape:pageopacity="0"
     inkscape:pageshadow="2"
     inkscape:window-width="740"
     inkscape:window-height="480"
     id="namedview8"
     showgrid="false"
     inkscape:zoom="0.4609375"
     inkscape:cx="256"
     inkscape:cy="256"
     inkscape:window-x="0"
     inkscape:window-y="0"
     inkscape:window-maximized="0"
     inkscape:current-layer="svg6" />
  <rect
     width="512"
     height="512"
     rx="15%"
     fill="#328cff"
     id="rect2"
     style="fill:#1b1817;fill-opacity:1" />
  <path
     d="m250 186c-46 0-69 35-69 74 0 44 29 72 68 72 43 0 73-32 73-75 0-44-34-71-72-71zm-1-37c30 0 57 13 77 33 0-22 35-22 35 1v150c-1 10 10 16 16 9 25-25 54-128-14-187-64-56-149-47-195-15-48 33-79 107-49 175 33 76 126 99 182 76 28-12 41 26 12 39-45 19-168 17-225-82-38-68-36-185 67-248 78-46 182-33 244 32 66 69 62 197-2 246-28 23-71 1-71-32v-11c-20 20-47 32-77 32-57 0-108-51-108-108 0-58 51-110 108-110"
     fill="#fff"
     id="path4" />
</svg>
